<svg width="37" height="45" viewBox="0 0 37 45" fill="none" xmlns="http://www.w3.org/2000/svg">
<ellipse cx="33.3726" cy="27.5686" rx="2.17647" ry="2.90196" fill="#B78276"/>
<ellipse cx="2.17647" cy="27.5686" rx="2.17647" ry="2.90196" fill="#B78276"/>
<path d="M17.7742 10.4069L17.7747 10.4069L17.7947 10.4069C21.8745 10.415 25.5845 11.6498 28.2689 13.6735C30.9522 15.6965 32.6019 18.4986 32.6019 21.6558C32.6019 23.0788 32.6912 24.178 32.7952 25.4586C32.8178 25.7373 32.8411 26.0245 32.8644 26.3255C32.9942 28.0058 33.1225 29.6687 33.1225 31.3407C33.1225 34.9267 30.8841 38.0815 27.8209 40.3565C24.7585 42.6309 20.9184 43.9892 17.808 44.0047L17.8046 44.0048L17.7949 44.0049L17.7749 44.0049H17.7741L17.7541 44.0049L17.7444 44.0048L17.741 44.0048C14.6306 43.9892 10.7904 42.6309 7.72811 40.3565C4.6649 38.0815 2.42645 34.9267 2.42645 31.3407C2.42645 29.6687 2.5548 28.0058 2.6846 26.3255C2.70786 26.0245 2.73118 25.7373 2.75381 25.4586C2.85781 24.178 2.94707 23.0788 2.94707 21.6558C2.94707 18.4986 4.59676 15.6965 7.28006 13.6736C9.96451 11.6498 13.6747 10.415 17.7546 10.4069L17.7742 10.4069Z" fill="#C89583" stroke="#232322" stroke-width="0.5"/>
<path d="M24.8903 21.6693C24.3372 21.3294 24.34 20.6302 25.0067 20.3388C27.7487 19.646 29.7756 20.4645 31.284 21.8789C31.4207 22.0071 31.5739 22.1404 31.7178 22.2666C31.9225 22.576 31.6722 22.7872 31.3816 22.7618C29.6794 21.5637 28.0445 21.5955 27.1088 21.6302C26.6051 21.6489 26.048 21.8363 25.6901 21.8558C25.2801 21.8783 24.9919 21.7317 24.8903 21.6693Z" fill="#232322"/>
<path d="M11.6055 21.6693C12.1587 21.3294 12.1558 20.6302 11.4891 20.3388C8.74713 19.646 6.72028 20.4645 5.21188 21.8789C5.07511 22.0071 4.92199 22.1404 4.77805 22.2666C4.57337 22.576 4.8236 22.7872 5.11425 22.7618C6.81643 21.5637 8.45136 21.5955 9.38705 21.6302C9.89076 21.6489 10.4479 21.8363 10.8058 21.8558C11.2158 21.8783 11.504 21.7317 11.6055 21.6693Z" fill="#232322"/>
<ellipse cx="8.34314" cy="28.2941" rx="1.81373" ry="1.45098" fill="#232322"/>
<circle cx="8.34315" cy="27.9314" r="0.362745" fill="white" fill-opacity="0.9"/>
<circle cx="26.8431" cy="28.2941" r="1.45098" fill="#232322"/>
<circle cx="27.2059" cy="27.9314" r="0.362745" fill="white" fill-opacity="0.9"/>
<path d="M13.3256 34.7322C13.3695 34.711 13.4364 34.6861 13.5307 34.66C13.7688 34.5942 14.1213 34.5364 14.5592 34.4893C15.4314 34.3955 16.6007 34.3481 17.7745 34.3481C18.9484 34.3481 20.1177 34.3955 20.9898 34.4893C21.4278 34.5364 21.7802 34.5942 22.0183 34.66C22.1145 34.6866 22.1821 34.712 22.226 34.7334C22.2145 34.7647 22.1945 34.8051 22.1609 34.8552C22.0978 34.9494 21.9996 35.0586 21.866 35.1777C21.5994 35.4157 21.2171 35.6717 20.7709 35.9078C19.8733 36.3828 18.7695 36.75 17.9084 36.75C17.0451 36.75 15.8727 36.3814 14.9057 35.9046C14.425 35.6676 14.0088 35.4104 13.717 35.171C13.5707 35.051 13.4629 34.9412 13.3936 34.8466C13.3589 34.7992 13.3379 34.7612 13.3256 34.7322ZM13.2732 34.7636C13.273 34.7636 13.2742 34.7624 13.2775 34.7599C13.275 34.7624 13.2734 34.7637 13.2732 34.7636ZM22.2759 34.7636C22.2757 34.7637 22.274 34.7624 22.2716 34.7599C22.2748 34.7623 22.2761 34.7636 22.2759 34.7636Z" fill="#F9ECEC" stroke="#232322" stroke-width="0.5"/>
<path d="M30.1789 32.3217C29.1327 32.925 27.6849 33.2289 25.793 33.0888C24.1636 32.8781 23.0239 32.3256 22.2357 31.6035C21.4457 30.8798 20.9918 29.9704 20.7611 29.0199C19.9979 25.8747 22.6672 22.8122 25.9504 22.7425C27.8171 22.7029 29.6327 23.5511 30.8546 24.8636C32.075 26.1745 32.6856 27.9265 32.1934 29.6988C31.8845 30.8111 31.2218 31.7203 30.1789 32.3217Z" stroke="#232322" stroke-width="0.5"/>
<path d="M5.37008 32.3217C6.41626 32.925 7.86409 33.2289 9.75597 33.0888C11.3854 32.8781 12.5251 32.3256 13.3133 31.6035C14.1033 30.8798 14.5572 29.9704 14.7879 29.0199C15.5512 25.8747 12.8818 22.8122 9.59862 22.7425C7.73195 22.7029 5.91634 23.5511 4.69438 24.8636C3.47401 26.1745 2.86343 27.9265 3.35565 29.6988C3.66455 30.8111 4.32721 31.7203 5.37008 32.3217Z" stroke="#232322" stroke-width="0.5"/>
<path d="M13.7843 24.4813C17.0306 23.7165 18.7225 23.7512 21.7647 24.6667" stroke="#232322" stroke-width="0.5"/>
<mask id="path-14-inside-1" fill="white">
<path fill-rule="evenodd" clip-rule="evenodd" d="M26.9217 12.9178C30.1015 15.0299 32.1463 18.271 32.1463 22.0075C32.1463 23.4408 32.2292 24.5452 32.3267 25.8441C32.3479 26.1276 32.3699 26.4203 32.3919 26.7277C32.4565 27.6326 32.521 28.5358 32.5672 29.4397C34.387 27.8777 35.6543 24.3837 35.6543 20.3241C35.6543 14.808 33.3145 10.3363 30.4281 10.3363C29.0788 10.3363 27.849 11.3135 26.9217 12.9178ZM8.90864 13.0342C8.02154 11.7076 6.90446 10.917 5.69074 10.917C2.80439 10.917 0.464539 15.3887 0.464539 20.9048C0.464539 24.861 1.66814 28.28 3.41372 29.8974C3.46002 28.8405 3.53536 27.7853 3.61088 26.7277C3.63283 26.4203 3.6548 26.1275 3.67607 25.8441C3.77354 24.5452 3.85641 23.4408 3.85641 22.0075C3.85641 18.339 5.82756 15.148 8.90864 13.0342Z"/>
</mask>
<path fill-rule="evenodd" clip-rule="evenodd" d="M26.9217 12.9178C30.1015 15.0299 32.1463 18.271 32.1463 22.0075C32.1463 23.4408 32.2292 24.5452 32.3267 25.8441C32.3479 26.1276 32.3699 26.4203 32.3919 26.7277C32.4565 27.6326 32.521 28.5358 32.5672 29.4397C34.387 27.8777 35.6543 24.3837 35.6543 20.3241C35.6543 14.808 33.3145 10.3363 30.4281 10.3363C29.0788 10.3363 27.849 11.3135 26.9217 12.9178ZM8.90864 13.0342C8.02154 11.7076 6.90446 10.917 5.69074 10.917C2.80439 10.917 0.464539 15.3887 0.464539 20.9048C0.464539 24.861 1.66814 28.28 3.41372 29.8974C3.46002 28.8405 3.53536 27.7853 3.61088 26.7277C3.63283 26.4203 3.6548 26.1275 3.67607 25.8441C3.77354 24.5452 3.85641 23.4408 3.85641 22.0075C3.85641 18.339 5.82756 15.148 8.90864 13.0342Z" fill="#232322"/>
<path d="M26.9217 12.9178L26.0559 12.4174L25.5858 13.2309L26.3684 13.7508L26.9217 12.9178ZM32.3267 25.8441L31.3295 25.9189V25.9189L32.3267 25.8441ZM32.3919 26.7277L33.3893 26.6565V26.6565L32.3919 26.7277ZM32.5672 29.4397L31.5686 29.4909L31.6727 31.5255L33.2186 30.1985L32.5672 29.4397ZM8.90864 13.0342L9.47436 13.8588L10.2892 13.2998L9.7399 12.4783L8.90864 13.0342ZM3.41372 29.8974L2.73408 30.6309L4.31826 32.0987L4.41276 29.9411L3.41372 29.8974ZM3.61088 26.7277L2.61342 26.6565L3.61088 26.7277ZM3.67607 25.8441L2.67887 25.7692L3.67607 25.8441ZM26.3684 13.7508C29.3221 15.7127 31.1463 18.6648 31.1463 22.0075H33.1463C33.1463 17.8772 30.8809 14.3471 27.475 12.0848L26.3684 13.7508ZM31.1463 22.0075C31.1463 23.4824 31.232 24.6205 31.3295 25.9189L33.3239 25.7693C33.2264 24.4698 33.1463 23.3992 33.1463 22.0075H31.1463ZM31.3295 25.9189C31.3508 26.2026 31.3726 26.4936 31.3944 26.799L33.3893 26.6565C33.3672 26.347 33.3451 26.0525 33.3239 25.7693L31.3295 25.9189ZM31.3944 26.799C31.4591 27.7055 31.5229 28.5986 31.5686 29.4909L33.5659 29.3886C33.5191 28.4729 33.4538 27.5597 33.3893 26.6565L31.3944 26.799ZM33.2186 30.1985C34.3077 29.2637 35.1591 27.8227 35.7384 26.1449C36.3225 24.4537 36.6543 22.4539 36.6543 20.3241H34.6543C34.6543 22.254 34.3526 24.0309 33.848 25.4921C33.3388 26.9667 32.6466 28.0537 31.9159 28.681L33.2186 30.1985ZM36.6543 20.3241C36.6543 17.438 36.0444 14.7755 35.0097 12.798C33.9999 10.8682 32.4303 9.33627 30.4281 9.33627V11.3363C31.3123 11.3363 32.3559 12.0402 33.2376 13.7253C34.0944 15.3627 34.6543 17.6941 34.6543 20.3241H36.6543ZM30.4281 9.33627C28.5554 9.33627 27.0591 10.6817 26.0559 12.4174L27.7875 13.4182C28.6388 11.9453 29.6023 11.3363 30.4281 11.3363V9.33627ZM9.7399 12.4783C8.75914 11.0117 7.37531 9.91695 5.69074 9.91695V11.917C6.43361 11.917 7.28393 12.4036 8.07738 13.5901L9.7399 12.4783ZM5.69074 9.91695C3.68855 9.91695 2.11901 11.4489 1.10923 13.3787C0.0745165 15.3562 -0.535461 18.0187 -0.535461 20.9048H1.46454C1.46454 18.2748 2.02449 15.9434 2.88129 14.306C3.76302 12.6209 4.80659 11.917 5.69074 11.917V9.91695ZM-0.535461 20.9048C-0.535461 24.9972 0.699153 28.7455 2.73408 30.6309L4.09337 29.1638C2.63712 27.8146 1.46454 24.7249 1.46454 20.9048H-0.535461ZM4.41276 29.9411C4.45835 28.9003 4.53266 27.8588 4.60834 26.799L2.61342 26.6565C2.53806 27.7118 2.46168 28.7807 2.41468 29.8536L4.41276 29.9411ZM4.60834 26.799C4.63014 26.4936 4.65198 26.2026 4.67327 25.9189L2.67887 25.7692C2.65762 26.0525 2.63552 26.347 2.61342 26.6565L4.60834 26.799ZM4.67327 25.9189C4.7707 24.6205 4.85641 23.4824 4.85641 22.0075H2.85641C2.85641 23.3992 2.77638 24.4698 2.67887 25.7692L4.67327 25.9189ZM4.85641 22.0075C4.85641 18.725 6.61503 15.8205 9.47436 13.8588L8.34292 12.2096C5.04009 14.4755 2.85641 17.9529 2.85641 22.0075H4.85641Z" fill="#232322" mask="url(#path-14-inside-1)"/>
<path d="M34.8413 7.52634C35.6104 7.52634 36.0292 7.71092 36.2421 7.92517C36.4423 8.12666 36.549 8.44549 36.4785 8.94331C36.3324 9.97555 35.4551 11.4697 33.9441 13.038C30.9453 16.1505 25.7541 19.2434 20.266 19.2434C16.3162 19.2434 12.7594 18.2879 10.2063 16.8405C7.62758 15.3786 6.19073 13.4927 6.19073 11.6719C6.19073 4.98294 12.6822 0.5 20.266 0.5C23.2588 0.5 25.3227 2.13313 27.4524 3.89814C27.5172 3.95188 27.5822 4.00577 27.6472 4.05976C29.6776 5.74509 31.8236 7.52634 34.8413 7.52634Z" fill="#232322" stroke="#232322"/>
</svg>
