<svg width="124" height="45" viewBox="0 0 124 45" fill="none" xmlns="http://www.w3.org/2000/svg">
<path d="M49.2 32.9162C49.0933 32.9162 49 32.8762 48.92 32.7962C48.84 32.7162 48.8 32.6229 48.8 32.5162C48.8 32.3962 48.8267 32.2895 48.88 32.1962L50.44 28.4962L46.6 19.4362C46.5467 19.3162 46.52 19.2229 46.52 19.1562C46.5333 19.0362 46.58 18.9362 46.66 18.8562C46.74 18.7629 46.84 18.7162 46.96 18.7162H48.58C48.8333 18.7162 49.0133 18.8429 49.12 19.0962L51.78 25.6362L54.52 19.0962C54.6267 18.8429 54.8067 18.7162 55.06 18.7162H56.66C56.7667 18.7162 56.86 18.7562 56.94 18.8362C57.0333 18.9162 57.08 19.0095 57.08 19.1162C57.08 19.2095 57.0533 19.3162 57 19.4362L51.34 32.5362C51.22 32.7895 51.0333 32.9162 50.78 32.9162H49.2ZM62.9133 29.3162C61.4333 29.3162 60.2533 28.8895 59.3733 28.0362C58.5066 27.1695 58.0466 25.9562 57.9933 24.3962L57.9733 23.8962L57.9933 23.3962C58.0599 21.8762 58.5266 20.6829 59.3933 19.8162C60.2733 18.9495 61.4466 18.5162 62.9133 18.5162C64.4866 18.5162 65.6999 18.9962 66.5533 19.9562C67.4199 20.9162 67.8533 22.1962 67.8533 23.7962V24.2162C67.8533 24.3495 67.8066 24.4629 67.7133 24.5562C67.6199 24.6495 67.4999 24.6962 67.3533 24.6962H60.7133V24.8562C60.7399 25.5895 60.9399 26.2095 61.3133 26.7162C61.6999 27.2095 62.2266 27.4562 62.8933 27.4562C63.6799 27.4562 64.3133 27.1495 64.7933 26.5362C64.9133 26.3895 65.0066 26.2962 65.0733 26.2562C65.1533 26.2162 65.2666 26.1962 65.4133 26.1962H67.1333C67.2533 26.1962 67.3533 26.2362 67.4333 26.3162C67.5266 26.3829 67.5733 26.4695 67.5733 26.5762C67.5733 26.8962 67.3799 27.2762 66.9933 27.7162C66.6199 28.1429 66.0799 28.5162 65.3733 28.8362C64.6666 29.1562 63.8466 29.3162 62.9133 29.3162ZM65.1333 23.0162V22.9562C65.1333 22.1695 64.9333 21.5362 64.5333 21.0562C64.1466 20.5762 63.6066 20.3362 62.9133 20.3362C62.2199 20.3362 61.6799 20.5762 61.2933 21.0562C60.9066 21.5362 60.7133 22.1695 60.7133 22.9562V23.0162H65.1333ZM71.4786 29.1162C71.3453 29.1162 71.2319 29.0695 71.1386 28.9762C71.0453 28.8829 70.9986 28.7695 70.9986 28.6362V20.8362H69.3786C69.2453 20.8362 69.1319 20.7895 69.0386 20.6962C68.9453 20.5895 68.8986 20.4695 68.8986 20.3362V19.1962C68.8986 19.0629 68.9453 18.9495 69.0386 18.8562C69.1319 18.7629 69.2453 18.7162 69.3786 18.7162H70.9986V17.8962C70.9986 15.5095 72.3053 14.3162 74.9186 14.3162H76.2786C76.4253 14.3162 76.5386 14.3629 76.6186 14.4562C76.7119 14.5362 76.7586 14.6495 76.7586 14.7962V15.9362C76.7586 16.0829 76.7119 16.2029 76.6186 16.2962C76.5253 16.3895 76.4119 16.4362 76.2786 16.4362H74.9986C74.4786 16.4362 74.1119 16.5629 73.8986 16.8162C73.6986 17.0695 73.5986 17.4629 73.5986 17.9962V18.7162H76.0786C76.2253 18.7162 76.3386 18.7629 76.4186 18.8562C76.5119 18.9362 76.5586 19.0495 76.5586 19.1962V20.3362C76.5586 20.4829 76.5119 20.6029 76.4186 20.6962C76.3253 20.7895 76.2119 20.8362 76.0786 20.8362H73.5986V28.6362C73.5986 28.7695 73.5519 28.8829 73.4586 28.9762C73.3653 29.0695 73.2519 29.1162 73.1186 29.1162H71.4786ZM82.4836 29.3162C81.0036 29.3162 79.8236 28.8895 78.9436 28.0362C78.0769 27.1695 77.6169 25.9562 77.5636 24.3962L77.5436 23.8962L77.5636 23.3962C77.6303 21.8762 78.0969 20.6829 78.9636 19.8162C79.8436 18.9495 81.0169 18.5162 82.4836 18.5162C84.0569 18.5162 85.2703 18.9962 86.1236 19.9562C86.9903 20.9162 87.4236 22.1962 87.4236 23.7962V24.2162C87.4236 24.3495 87.3769 24.4629 87.2836 24.5562C87.1903 24.6495 87.0703 24.6962 86.9236 24.6962H80.2836V24.8562C80.3103 25.5895 80.5103 26.2095 80.8836 26.7162C81.2703 27.2095 81.7969 27.4562 82.4636 27.4562C83.2503 27.4562 83.8836 27.1495 84.3636 26.5362C84.4836 26.3895 84.5769 26.2962 84.6436 26.2562C84.7236 26.2162 84.8369 26.1962 84.9836 26.1962H86.7036C86.8236 26.1962 86.9236 26.2362 87.0036 26.3162C87.0969 26.3829 87.1436 26.4695 87.1436 26.5762C87.1436 26.8962 86.9503 27.2762 86.5636 27.7162C86.1903 28.1429 85.6503 28.5162 84.9436 28.8362C84.2369 29.1562 83.4169 29.3162 82.4836 29.3162ZM84.7036 23.0162V22.9562C84.7036 22.1695 84.5036 21.5362 84.1036 21.0562C83.7169 20.5762 83.1769 20.3362 82.4836 20.3362C81.7903 20.3362 81.2503 20.5762 80.8636 21.0562C80.4769 21.5362 80.2836 22.1695 80.2836 22.9562V23.0162H84.7036ZM90.0266 29.1162C89.8932 29.1162 89.7799 29.0695 89.6866 28.9762C89.5932 28.8829 89.5466 28.7695 89.5466 28.6362V19.2162C89.5466 19.0829 89.5932 18.9695 89.6866 18.8762C89.7799 18.7695 89.8932 18.7162 90.0266 18.7162H91.6466C91.7932 18.7162 91.9132 18.7629 92.0066 18.8562C92.0999 18.9495 92.1466 19.0695 92.1466 19.2162V20.0362C92.4666 19.6095 92.8666 19.2829 93.3466 19.0562C93.8399 18.8295 94.3999 18.7162 95.0266 18.7162H95.8466C95.9932 18.7162 96.1066 18.7629 96.1866 18.8562C96.2799 18.9362 96.3266 19.0495 96.3266 19.1962V20.6362C96.3266 20.7695 96.2799 20.8829 96.1866 20.9762C96.1066 21.0695 95.9932 21.1162 95.8466 21.1162H94.2866C93.6599 21.1162 93.1666 21.2962 92.8066 21.6562C92.4466 22.0162 92.2666 22.5095 92.2666 23.1362V28.6362C92.2666 28.7695 92.2199 28.8829 92.1266 28.9762C92.0332 29.0695 91.9132 29.1162 91.7666 29.1162H90.0266ZM98.4664 29.1162C98.3197 29.1162 98.1997 29.0695 98.1064 28.9762C98.0131 28.8829 97.9664 28.7629 97.9664 28.6162V15.6162C97.9664 15.4695 98.0131 15.3495 98.1064 15.2562C98.2131 15.1629 98.3331 15.1162 98.4664 15.1162H101.046C101.193 15.1162 101.313 15.1629 101.406 15.2562C101.513 15.3495 101.566 15.4695 101.566 15.6162V20.4362H106.486V15.6162C106.486 15.4695 106.533 15.3495 106.626 15.2562C106.72 15.1629 106.84 15.1162 106.986 15.1162H109.566C109.713 15.1162 109.833 15.1629 109.926 15.2562C110.02 15.3495 110.066 15.4695 110.066 15.6162V28.6162C110.066 28.7629 110.02 28.8829 109.926 28.9762C109.833 29.0695 109.713 29.1162 109.566 29.1162H106.986C106.84 29.1162 106.72 29.0695 106.626 28.9762C106.533 28.8829 106.486 28.7629 106.486 28.6162V23.6362H101.566V28.6162C101.566 28.7629 101.513 28.8829 101.406 28.9762C101.313 29.0695 101.193 29.1162 101.046 29.1162H98.4664ZM113.369 29.1162C113.235 29.1162 113.115 29.0695 113.009 28.9762C112.915 28.8695 112.869 28.7495 112.869 28.6162V15.6162C112.869 15.4695 112.915 15.3495 113.009 15.2562C113.115 15.1629 113.235 15.1162 113.369 15.1162H116.009C116.155 15.1162 116.275 15.1629 116.369 15.2562C116.462 15.3495 116.509 15.4695 116.509 15.6162V26.0962H122.569C122.715 26.0962 122.835 26.1495 122.929 26.2562C123.022 26.3495 123.069 26.4695 123.069 26.6162V28.6162C123.069 28.7495 123.022 28.8695 122.929 28.9762C122.835 29.0695 122.715 29.1162 122.569 29.1162H113.369Z" fill="#0B132A"/>
<ellipse cx="33.3726" cy="27.5686" rx="2.17647" ry="2.90196" fill="#B78276"/>
<ellipse cx="2.17647" cy="27.5686" rx="2.17647" ry="2.90196" fill="#B78276"/>
<path d="M17.7742 10.4069L17.7747 10.4069L17.7947 10.4069C21.8745 10.415 25.5845 11.6498 28.2689 13.6735C30.9522 15.6965 32.6019 18.4986 32.6019 21.6558C32.6019 23.0788 32.6912 24.178 32.7952 25.4586C32.8178 25.7373 32.8411 26.0245 32.8644 26.3255C32.9942 28.0058 33.1225 29.6687 33.1225 31.3407C33.1225 34.9267 30.8841 38.0815 27.8209 40.3565C24.7585 42.6309 20.9184 43.9892 17.808 44.0047L17.8046 44.0048L17.7949 44.0049L17.7749 44.0049H17.7741L17.7541 44.0049L17.7444 44.0048L17.741 44.0048C14.6306 43.9892 10.7904 42.6309 7.72811 40.3565C4.6649 38.0815 2.42645 34.9267 2.42645 31.3407C2.42645 29.6687 2.5548 28.0058 2.6846 26.3255C2.70786 26.0245 2.73118 25.7373 2.75381 25.4586C2.85781 24.178 2.94707 23.0788 2.94707 21.6558C2.94707 18.4986 4.59676 15.6965 7.28006 13.6736C9.96451 11.6498 13.6747 10.415 17.7546 10.4069L17.7742 10.4069Z" fill="#C89583" stroke="#232322" stroke-width="0.5"/>
<path d="M24.8903 21.6693C24.3372 21.3294 24.34 20.6302 25.0067 20.3388C27.7487 19.646 29.7756 20.4645 31.284 21.8789C31.4207 22.0071 31.5739 22.1404 31.7178 22.2666C31.9225 22.576 31.6722 22.7872 31.3816 22.7618C29.6794 21.5637 28.0445 21.5955 27.1088 21.6302C26.6051 21.6489 26.048 21.8363 25.6901 21.8558C25.2801 21.8783 24.9919 21.7317 24.8903 21.6693Z" fill="#232322"/>
<path d="M11.6055 21.6693C12.1587 21.3294 12.1558 20.6302 11.4891 20.3388C8.74713 19.646 6.72028 20.4645 5.21188 21.8789C5.07511 22.0071 4.92199 22.1404 4.77805 22.2666C4.57337 22.576 4.8236 22.7872 5.11425 22.7618C6.81643 21.5637 8.45136 21.5955 9.38705 21.6302C9.89076 21.6489 10.4479 21.8363 10.8058 21.8558C11.2158 21.8783 11.504 21.7317 11.6055 21.6693Z" fill="#232322"/>
<ellipse cx="8.34314" cy="28.2941" rx="1.81373" ry="1.45098" fill="#232322"/>
<circle cx="8.34315" cy="27.9314" r="0.362745" fill="white" fill-opacity="0.9"/>
<circle cx="26.8431" cy="28.2941" r="1.45098" fill="#232322"/>
<circle cx="27.2059" cy="27.9314" r="0.362745" fill="white" fill-opacity="0.9"/>
<path d="M13.3256 34.7322C13.3695 34.711 13.4364 34.6861 13.5307 34.66C13.7688 34.5942 14.1213 34.5364 14.5592 34.4893C15.4314 34.3955 16.6007 34.3481 17.7745 34.3481C18.9484 34.3481 20.1177 34.3955 20.9898 34.4893C21.4278 34.5364 21.7802 34.5942 22.0183 34.66C22.1145 34.6866 22.1821 34.712 22.226 34.7334C22.2145 34.7647 22.1945 34.8051 22.1609 34.8552C22.0978 34.9494 21.9996 35.0586 21.866 35.1777C21.5994 35.4157 21.2171 35.6717 20.7709 35.9078C19.8733 36.3828 18.7695 36.75 17.9084 36.75C17.0451 36.75 15.8727 36.3814 14.9057 35.9046C14.425 35.6676 14.0088 35.4104 13.717 35.171C13.5707 35.051 13.4629 34.9412 13.3936 34.8466C13.3589 34.7992 13.3379 34.7612 13.3256 34.7322ZM13.2732 34.7636C13.273 34.7636 13.2742 34.7624 13.2775 34.7599C13.275 34.7624 13.2734 34.7637 13.2732 34.7636ZM22.2759 34.7636C22.2757 34.7637 22.274 34.7624 22.2716 34.7599C22.2748 34.7623 22.2761 34.7636 22.2759 34.7636Z" fill="#F9ECEC" stroke="#232322" stroke-width="0.5"/>
<path d="M30.1789 32.3217C29.1327 32.925 27.6849 33.2289 25.793 33.0888C24.1636 32.8781 23.0239 32.3256 22.2357 31.6035C21.4457 30.8798 20.9918 29.9704 20.7611 29.0199C19.9979 25.8747 22.6672 22.8122 25.9504 22.7425C27.8171 22.7029 29.6327 23.5511 30.8546 24.8636C32.075 26.1745 32.6856 27.9265 32.1934 29.6988C31.8845 30.8111 31.2218 31.7203 30.1789 32.3217Z" stroke="#232322" stroke-width="0.5"/>
<path d="M5.37008 32.3217C6.41626 32.925 7.86409 33.2289 9.75597 33.0888C11.3854 32.8781 12.5251 32.3256 13.3133 31.6035C14.1033 30.8798 14.5572 29.9704 14.7879 29.0199C15.5512 25.8747 12.8818 22.8122 9.59862 22.7425C7.73195 22.7029 5.91634 23.5511 4.69438 24.8636C3.47401 26.1745 2.86343 27.9265 3.35565 29.6988C3.66455 30.8111 4.32721 31.7203 5.37008 32.3217Z" stroke="#232322" stroke-width="0.5"/>
<path d="M13.7843 24.4813C17.0306 23.7165 18.7225 23.7512 21.7647 24.6667" stroke="#232322" stroke-width="0.5"/>
<mask id="path-15-inside-1" fill="white">
<path fill-rule="evenodd" clip-rule="evenodd" d="M26.9217 12.9178C30.1015 15.0299 32.1463 18.271 32.1463 22.0075C32.1463 23.4408 32.2292 24.5452 32.3267 25.8441C32.3479 26.1276 32.3699 26.4203 32.3919 26.7277C32.4565 27.6326 32.521 28.5358 32.5672 29.4397C34.387 27.8777 35.6543 24.3837 35.6543 20.3241C35.6543 14.808 33.3145 10.3363 30.4281 10.3363C29.0788 10.3363 27.849 11.3135 26.9217 12.9178ZM8.90864 13.0342C8.02154 11.7076 6.90446 10.917 5.69074 10.917C2.80439 10.917 0.464539 15.3887 0.464539 20.9048C0.464539 24.861 1.66814 28.28 3.41372 29.8974C3.46002 28.8405 3.53536 27.7853 3.61088 26.7277C3.63283 26.4203 3.6548 26.1275 3.67607 25.8441C3.77354 24.5452 3.85641 23.4408 3.85641 22.0075C3.85641 18.339 5.82756 15.148 8.90864 13.0342Z"/>
</mask>
<path fill-rule="evenodd" clip-rule="evenodd" d="M26.9217 12.9178C30.1015 15.0299 32.1463 18.271 32.1463 22.0075C32.1463 23.4408 32.2292 24.5452 32.3267 25.8441C32.3479 26.1276 32.3699 26.4203 32.3919 26.7277C32.4565 27.6326 32.521 28.5358 32.5672 29.4397C34.387 27.8777 35.6543 24.3837 35.6543 20.3241C35.6543 14.808 33.3145 10.3363 30.4281 10.3363C29.0788 10.3363 27.849 11.3135 26.9217 12.9178ZM8.90864 13.0342C8.02154 11.7076 6.90446 10.917 5.69074 10.917C2.80439 10.917 0.464539 15.3887 0.464539 20.9048C0.464539 24.861 1.66814 28.28 3.41372 29.8974C3.46002 28.8405 3.53536 27.7853 3.61088 26.7277C3.63283 26.4203 3.6548 26.1275 3.67607 25.8441C3.77354 24.5452 3.85641 23.4408 3.85641 22.0075C3.85641 18.339 5.82756 15.148 8.90864 13.0342Z" fill="#232322"/>
<path d="M26.9217 12.9178L26.0559 12.4174L25.5858 13.2309L26.3684 13.7508L26.9217 12.9178ZM32.3267 25.8441L31.3295 25.9189V25.9189L32.3267 25.8441ZM32.3919 26.7277L33.3893 26.6565V26.6565L32.3919 26.7277ZM32.5672 29.4397L31.5686 29.4909L31.6727 31.5255L33.2186 30.1985L32.5672 29.4397ZM8.90864 13.0342L9.47436 13.8588L10.2892 13.2998L9.7399 12.4783L8.90864 13.0342ZM3.41372 29.8974L2.73408 30.6309L4.31826 32.0987L4.41276 29.9411L3.41372 29.8974ZM3.61088 26.7277L2.61342 26.6565L3.61088 26.7277ZM3.67607 25.8441L2.67887 25.7692L3.67607 25.8441ZM26.3684 13.7508C29.3221 15.7127 31.1463 18.6648 31.1463 22.0075H33.1463C33.1463 17.8772 30.8809 14.3471 27.475 12.0848L26.3684 13.7508ZM31.1463 22.0075C31.1463 23.4824 31.232 24.6205 31.3295 25.9189L33.3239 25.7693C33.2264 24.4698 33.1463 23.3992 33.1463 22.0075H31.1463ZM31.3295 25.9189C31.3508 26.2026 31.3726 26.4936 31.3944 26.799L33.3893 26.6565C33.3672 26.347 33.3451 26.0525 33.3239 25.7693L31.3295 25.9189ZM31.3944 26.799C31.4591 27.7055 31.5229 28.5986 31.5686 29.4909L33.5659 29.3886C33.5191 28.4729 33.4538 27.5597 33.3893 26.6565L31.3944 26.799ZM33.2186 30.1985C34.3077 29.2637 35.1591 27.8227 35.7384 26.1449C36.3225 24.4537 36.6543 22.4539 36.6543 20.3241H34.6543C34.6543 22.254 34.3526 24.0309 33.848 25.4921C33.3388 26.9667 32.6466 28.0537 31.9159 28.681L33.2186 30.1985ZM36.6543 20.3241C36.6543 17.438 36.0444 14.7755 35.0097 12.798C33.9999 10.8682 32.4303 9.33627 30.4281 9.33627V11.3363C31.3123 11.3363 32.3559 12.0402 33.2376 13.7253C34.0944 15.3627 34.6543 17.6941 34.6543 20.3241H36.6543ZM30.4281 9.33627C28.5554 9.33627 27.0591 10.6817 26.0559 12.4174L27.7875 13.4182C28.6388 11.9453 29.6023 11.3363 30.4281 11.3363V9.33627ZM9.7399 12.4783C8.75914 11.0117 7.37531 9.91695 5.69074 9.91695V11.917C6.43361 11.917 7.28393 12.4036 8.07738 13.5901L9.7399 12.4783ZM5.69074 9.91695C3.68855 9.91695 2.11901 11.4489 1.10923 13.3787C0.0745165 15.3562 -0.535461 18.0187 -0.535461 20.9048H1.46454C1.46454 18.2748 2.02449 15.9434 2.88129 14.306C3.76302 12.6209 4.80659 11.917 5.69074 11.917V9.91695ZM-0.535461 20.9048C-0.535461 24.9972 0.699153 28.7455 2.73408 30.6309L4.09337 29.1638C2.63712 27.8146 1.46454 24.7249 1.46454 20.9048H-0.535461ZM4.41276 29.9411C4.45835 28.9003 4.53266 27.8588 4.60834 26.799L2.61342 26.6565C2.53806 27.7118 2.46168 28.7807 2.41468 29.8536L4.41276 29.9411ZM4.60834 26.799C4.63014 26.4936 4.65198 26.2026 4.67327 25.9189L2.67887 25.7692C2.65762 26.0525 2.63552 26.347 2.61342 26.6565L4.60834 26.799ZM4.67327 25.9189C4.7707 24.6205 4.85641 23.4824 4.85641 22.0075H2.85641C2.85641 23.3992 2.77638 24.4698 2.67887 25.7692L4.67327 25.9189ZM4.85641 22.0075C4.85641 18.725 6.61503 15.8205 9.47436 13.8588L8.34292 12.2096C5.04009 14.4755 2.85641 17.9529 2.85641 22.0075H4.85641Z" fill="#232322" mask="url(#path-15-inside-1)"/>
<path d="M34.8413 7.52634C35.6104 7.52634 36.0292 7.71092 36.2421 7.92517C36.4423 8.12666 36.549 8.44549 36.4785 8.94331C36.3324 9.97555 35.4551 11.4697 33.9441 13.038C30.9453 16.1505 25.7541 19.2434 20.266 19.2434C16.3162 19.2434 12.7594 18.2879 10.2063 16.8405C7.62758 15.3786 6.19073 13.4927 6.19073 11.6719C6.19073 4.98294 12.6822 0.5 20.266 0.5C23.2588 0.5 25.3227 2.13313 27.4524 3.89814C27.5172 3.95188 27.5822 4.00577 27.6472 4.05976C29.6776 5.74509 31.8236 7.52634 34.8413 7.52634Z" fill="#232322" stroke="#232322"/>
</svg>
