<svg width="258" height="258" viewBox="0 0 258 258" fill="none" xmlns="http://www.w3.org/2000/svg">
<g filter="url(#filter0_d_1416_90)">
<path fill-rule="evenodd" clip-rule="evenodd" d="M49 0C24.1472 0 4 20.1472 4 45V205C4 229.853 24.1472 250 49 250H209C233.853 250 254 229.853 254 205V45C254 20.1472 233.853 0 209 0H49ZM146.758 86.7456C141.778 91.6942 135.939 94.1685 129.242 94.1685C122.545 94.1685 116.621 91.6942 111.47 86.7456C106.49 81.6264 104 75.7393 104 69.0843C104 62.4293 106.49 56.6275 111.47 51.6789C116.621 46.5596 122.545 44 129.242 44C135.939 44 141.778 46.5596 146.758 51.6789C151.909 56.6275 154.485 62.4293 154.485 69.0843C154.485 75.7393 151.909 81.6264 146.758 86.7456ZM149.076 182.987C153.025 175.991 155 168.227 155 159.695C155 148.944 152.51 140.924 147.53 135.634C142.722 130.174 136.283 127.444 128.212 127.444C121.343 127.444 115.591 129.918 110.955 134.866C106.49 139.815 104.258 145.446 104.258 151.76C104.258 156.709 105.717 161.145 108.636 165.07C111.556 168.824 115.848 171.469 121.515 173.005C121 174.711 120.141 176.418 118.939 178.124C117.737 179.83 116.449 181.366 115.076 182.731C113.015 185.12 111.47 187.083 110.439 188.618C109.409 190.154 108.894 192.031 108.894 194.25C108.894 197.321 109.924 199.881 111.985 201.928C114.217 203.976 117.136 205 120.742 205C125.035 205 129.843 203.038 135.167 199.113C140.662 195.188 145.298 189.813 149.076 182.987Z" fill="url(#paint0_linear_1416_90)"/>
</g>
<defs>
<filter id="filter0_d_1416_90" x="0" y="0" width="258" height="258" filterUnits="userSpaceOnUse" color-interpolation-filters="sRGB">
<feFlood flood-opacity="0" result="BackgroundImageFix"/>
<feColorMatrix in="SourceAlpha" type="matrix" values="0 0 0 0 0 0 0 0 0 0 0 0 0 0 0 0 0 0 127 0" result="hardAlpha"/>
<feOffset dy="4"/>
<feGaussianBlur stdDeviation="2"/>
<feComposite in2="hardAlpha" operator="out"/>
<feColorMatrix type="matrix" values="0 0 0 0 0 0 0 0 0 0 0 0 0 0 0 0 0 0 0.25 0"/>
<feBlend mode="normal" in2="BackgroundImageFix" result="effect1_dropShadow_1416_90"/>
<feBlend mode="normal" in="SourceGraphic" in2="effect1_dropShadow_1416_90" result="shape"/>
</filter>
<linearGradient id="paint0_linear_1416_90" x1="130.263" y1="-131.956" x2="130.263" y2="265.501" gradientUnits="userSpaceOnUse">
<stop stop-color="#673AB7"/>
<stop offset="1" stop-color="#CA90D7"/>
</linearGradient>
</defs>
</svg>
