<svg width="29" height="29" viewBox="0 0 29 29" fill="none" xmlns="http://www.w3.org/2000/svg">
<g filter="url(#filter0_d)">
<rect x="5" y="5" width="18.7164" height="18.7164" rx="9.35821" fill="white"/>
</g>
<g clip-path="url(#clip0)">
<path d="M12.0063 20.606C13.1132 20.606 14.0115 19.6647 14.0115 18.5049V16.4038H12.0063C10.8994 16.4038 10.0011 17.3451 10.0011 18.5049C10.0011 19.6647 10.8994 20.606 12.0063 20.606Z" fill="#0ACF83"/>
<path d="M10.0011 14.303C10.0011 13.1432 10.8994 12.2019 12.0063 12.2019H14.0115V16.4041H12.0063C10.8994 16.4041 10.0011 15.4628 10.0011 14.303Z" fill="#A259FF"/>
<path d="M10.0027 10.1011C10.0027 8.9413 10.9011 8 12.008 8H14.0132V12.2022H12.008C10.9011 12.2022 10.0027 11.2609 10.0027 10.1011Z" fill="#F24E1E"/>
<path d="M14.0111 8H16.0163C17.1232 8 18.0215 8.9413 18.0215 10.1011C18.0215 11.2609 17.1232 12.2022 16.0163 12.2022H14.0111V8Z" fill="#FF7262"/>
<path d="M18.0215 14.303C18.0215 15.4628 17.1232 16.4041 16.0163 16.4041C14.9094 16.4041 14.0111 15.4628 14.0111 14.303C14.0111 13.1432 14.9094 12.2019 16.0163 12.2019C17.1232 12.2019 18.0215 13.1432 18.0215 14.303Z" fill="#1ABCFE"/>
</g>
<defs>
<filter id="filter0_d" x="0" y="0" width="28.7164" height="28.7164" filterUnits="userSpaceOnUse" color-interpolation-filters="sRGB">
<feFlood flood-opacity="0" result="BackgroundImageFix"/>
<feColorMatrix in="SourceAlpha" type="matrix" values="0 0 0 0 0 0 0 0 0 0 0 0 0 0 0 0 0 0 127 0"/>
<feOffset/>
<feGaussianBlur stdDeviation="2.5"/>
<feColorMatrix type="matrix" values="0 0 0 0 0 0 0 0 0 0 0 0 0 0 0 0 0 0 0.25 0"/>
<feBlend mode="normal" in2="BackgroundImageFix" result="effect1_dropShadow"/>
<feBlend mode="normal" in="SourceGraphic" in2="effect1_dropShadow" result="shape"/>
</filter>
<clipPath id="clip0">
<rect width="8.02244" height="12.6067" fill="white" transform="translate(10 8)"/>
</clipPath>
</defs>
</svg>
