<svg width="19" height="19" viewBox="0 0 19 19" fill="none" xmlns="http://www.w3.org/2000/svg">
<g clip-path="url(#clip0)">
<path d="M19.6802 -1.8717H-0.589629C-0.884228 -1.8717 -1.12305 -1.62869 -1.12305 -1.32893V19.2966C-1.12305 19.5963 -0.884228 19.8393 -0.589629 19.8393H19.6802C19.9748 19.8393 20.2137 19.5963 20.2137 19.2966V-1.32893C20.2137 -1.62869 19.9748 -1.8717 19.6802 -1.8717Z" fill="#FFCA28"/>
<path d="M12.3803 9.59403V12.462C12.3803 12.906 12.2543 13.248 12.0023 13.488C11.7543 13.728 11.4183 13.848 10.9943 13.848C10.5503 13.848 10.1943 13.722 9.9263 13.47C9.6583 13.218 9.5243 12.86 9.5243 12.396H10.5443C10.5443 12.572 10.5803 12.706 10.6523 12.798C10.7243 12.886 10.8283 12.93 10.9643 12.93C11.0883 12.93 11.1843 12.89 11.2523 12.81C11.3203 12.73 11.3543 12.614 11.3543 12.462V9.59403H12.3803ZM15.033 13.848C14.725 13.848 14.449 13.798 14.205 13.698C13.961 13.598 13.765 13.45 13.617 13.254C13.473 13.058 13.397 12.822 13.389 12.546H14.481C14.497 12.702 14.551 12.822 14.643 12.906C14.735 12.986 14.855 13.026 15.003 13.026C15.155 13.026 15.275 12.992 15.363 12.924C15.451 12.852 15.495 12.754 15.495 12.63C15.495 12.526 15.459 12.44 15.387 12.372C15.319 12.304 15.233 12.248 15.129 12.204C15.029 12.16 14.885 12.11 14.697 12.054C14.425 11.97 14.203 11.886 14.031 11.802C13.859 11.718 13.711 11.594 13.587 11.43C13.463 11.266 13.401 11.052 13.401 10.788C13.401 10.396 13.543 10.09 13.827 9.87003C14.111 9.64603 14.481 9.53403 14.937 9.53403C15.401 9.53403 15.775 9.64603 16.059 9.87003C16.343 10.09 16.495 10.398 16.515 10.794H15.405C15.397 10.658 15.347 10.552 15.255 10.476C15.163 10.396 15.045 10.356 14.901 10.356C14.777 10.356 14.677 10.39 14.601 10.458C14.525 10.522 14.487 10.616 14.487 10.74C14.487 10.876 14.551 10.982 14.679 11.058C14.807 11.134 15.007 11.216 15.279 11.304C15.551 11.396 15.771 11.484 15.939 11.568C16.111 11.652 16.259 11.774 16.383 11.934C16.507 12.094 16.569 12.3 16.569 12.552C16.569 12.792 16.507 13.01 16.383 13.206C16.263 13.402 16.087 13.558 15.855 13.674C15.623 13.79 15.349 13.848 15.033 13.848Z" fill="black"/>
<path fill-rule="evenodd" clip-rule="evenodd" d="M1.90286 3.76108C1.71213 3.78068 1.56597 3.94111 1.56419 4.13273L1.55973 4.51597C1.55706 4.70759 1.69877 4.87069 1.8895 4.89476L2.17113 4.93041C2.21748 5.09975 2.28432 5.26374 2.36988 5.41793L2.18896 5.64074C2.06775 5.79047 2.07755 6.00616 2.21124 6.14252L2.47862 6.41614C2.61231 6.55339 2.82799 6.56765 2.98039 6.45179L3.20588 6.27799C3.36364 6.37157 3.53208 6.44555 3.70677 6.49724L3.73707 6.7869C3.75668 6.97763 3.91711 7.12379 4.10873 7.12558L4.49197 7.13003C4.68359 7.13271 4.84669 6.991 4.87075 6.80027L4.9064 6.52576C5.09713 6.47852 5.27806 6.40811 5.45007 6.31453L5.6613 6.48387C5.81103 6.60508 6.02671 6.59617 6.16308 6.46159L6.43669 6.19421C6.57395 6.06052 6.58821 5.84484 6.47234 5.69243L6.31013 5.48121C6.40989 5.31602 6.48722 5.13828 6.54008 4.95269L6.78963 4.92595C6.98036 4.90634 7.12653 4.74592 7.12831 4.5543L7.13277 4.17106C7.13544 3.97944 6.99373 3.81634 6.803 3.79227L6.5579 3.76019C6.51067 3.5757 6.44204 3.39744 6.35113 3.23167L6.50265 3.04451C6.62386 2.89477 6.61405 2.67909 6.48036 2.54273L6.21299 2.26911C6.0793 2.13186 5.86361 2.1176 5.71121 2.23346L5.5285 2.37428C5.35649 2.27 5.172 2.18979 4.9786 2.13542L4.95453 1.89835C4.93492 1.70762 4.7745 1.56145 4.58288 1.55967L4.19964 1.55521C4.00802 1.55254 3.84491 1.69425 3.82085 1.88498L3.79055 2.12027C3.59115 2.17195 3.3996 2.25019 3.22103 2.35289L3.03209 2.1987C2.88325 2.07838 2.66845 2.08729 2.5312 2.22187L2.25491 2.48925C2.11766 2.62294 2.1034 2.83862 2.21926 2.99103L2.38147 3.19958C2.28789 3.36625 2.21391 3.54272 2.16489 3.7281L1.90108 3.75484L1.90286 3.76108ZM4.36897 3.32882C4.63232 3.33304 4.88333 3.44117 5.0673 3.62965C5.25127 3.81813 5.35329 4.07168 5.35114 4.33505C5.3449 4.88317 4.89303 5.32434 4.34402 5.31721C4.08067 5.31299 3.82967 5.20486 3.6457 5.01638C3.46173 4.8279 3.3597 4.57435 3.36185 4.31098C3.36809 3.76286 3.81996 3.32169 4.36897 3.32882ZM4.51603 8.58011C4.40908 8.62111 4.34669 8.73786 4.3761 8.85016L4.43315 9.07476C4.46167 9.18706 4.56951 9.26014 4.68537 9.2441L4.85471 9.22182C4.90843 9.31415 4.97339 9.39947 5.04811 9.47582L4.97681 9.63625C4.92958 9.7432 4.9679 9.8662 5.06861 9.92591L5.26825 10.0444C5.36807 10.1033 5.49642 10.0783 5.56593 9.98563L5.67021 9.84837C5.77677 9.8784 5.88663 9.89516 5.9973 9.89828L6.05969 10.0632C6.10069 10.1701 6.21744 10.2325 6.32974 10.2031L6.55434 10.1461C6.66664 10.1175 6.73972 10.0088 6.72368 9.89383L6.7014 9.72716C6.80567 9.67101 6.90015 9.6006 6.9866 9.51861L7.13811 9.58545C7.24506 9.63269 7.36806 9.59436 7.42688 9.49365L7.54542 9.2949C7.60424 9.19419 7.57929 9.06674 7.4866 8.99633L7.36004 8.89829C7.39236 8.78609 7.40974 8.67012 7.41173 8.55337L7.55433 8.4999C7.66128 8.4589 7.72367 8.34214 7.69426 8.22985L7.63722 8.00525C7.6087 7.89295 7.49996 7.81987 7.38499 7.83591L7.23704 7.85641C7.18085 7.75613 7.11228 7.66331 7.03295 7.58012L7.09355 7.44643C7.14079 7.33948 7.10246 7.2147 7.00175 7.15677L6.80211 7.03823C6.70229 6.97941 6.57395 7.00437 6.50443 7.09706L6.41709 7.20401C6.30066 7.1699 6.18011 7.15191 6.0588 7.15053L6.008 7.01684C5.96611 6.90989 5.85025 6.8475 5.73706 6.87692L5.51424 6.93396C5.40194 6.96248 5.32886 7.07032 5.3449 7.18618L5.36451 7.32878C5.25585 7.39019 5.15601 7.46605 5.06772 7.55427L4.93403 7.49367C4.82708 7.44643 4.70409 7.48475 4.64437 7.58457L4.52584 7.78511C4.46701 7.88493 4.49019 8.01327 4.58377 8.08457L4.71122 8.18083C4.68186 8.29283 4.66718 8.40817 4.66755 8.52396L4.51781 8.58189L4.51603 8.58011ZM5.89124 7.94108C6.2121 7.86087 6.54186 8.05427 6.62208 8.37601C6.70407 8.69687 6.50978 9.02485 6.18803 9.10684C5.86718 9.18706 5.5392 8.99365 5.4572 8.67191C5.3752 8.35106 5.5695 8.02307 5.89124 7.94108ZM7.16307 5.10242C7.08862 5.1036 7.01722 5.13215 6.96248 5.18262C6.90774 5.23308 6.8735 5.30193 6.86628 5.37604L6.83598 5.68085C6.82836 5.75498 6.84832 5.82932 6.89206 5.88966C6.93579 5.95 7.00023 5.99211 7.07305 6.00794L7.29587 6.05607C7.32082 6.19599 7.36271 6.33236 7.42064 6.4607L7.26022 6.62647C7.20847 6.67985 7.17815 6.75039 7.17502 6.82467C7.1719 6.89895 7.19619 6.97179 7.24328 7.02932L7.43936 7.2664C7.48642 7.324 7.55303 7.36229 7.6265 7.37396C7.69996 7.38563 7.77516 7.36986 7.83775 7.32967L8.02937 7.2049C8.14969 7.29046 8.27892 7.36176 8.41529 7.41524L8.41885 7.64964C8.42025 7.72393 8.44889 7.79511 8.49934 7.84966C8.54978 7.90422 8.61851 7.93834 8.69247 7.94553L8.99728 7.97584C9.07114 7.98326 9.14516 7.96331 9.20529 7.91977C9.26542 7.87624 9.30747 7.81214 9.32348 7.73965L9.37071 7.52219C9.52577 7.49812 9.67705 7.45408 9.8208 7.39117L9.97855 7.54269C10.032 7.59406 10.1024 7.62407 10.1765 7.62703C10.2506 7.62998 10.3231 7.60568 10.3805 7.55873L10.6176 7.36265C10.675 7.31563 10.7131 7.24919 10.7248 7.17592C10.7364 7.10266 10.7208 7.02767 10.6809 6.96515L10.565 6.78512C10.6568 6.66034 10.7299 6.52398 10.786 6.3787L10.9883 6.37603C11.0626 6.37463 11.1338 6.34599 11.1884 6.29554C11.2429 6.2451 11.277 6.17636 11.2842 6.10241L11.3145 5.7976C11.322 5.72374 11.302 5.64972 11.2585 5.58959C11.2149 5.52946 11.1509 5.48741 11.0784 5.4714L10.885 5.42862C10.8605 5.27817 10.8171 5.13142 10.7557 4.9919L10.8912 4.85287C10.9428 4.79938 10.973 4.72878 10.9759 4.6545C10.9789 4.58022 10.9544 4.50745 10.9072 4.45002L10.7112 4.21295C10.664 4.15548 10.5973 4.11737 10.5239 4.10586C10.4504 4.09436 10.3753 4.11027 10.3128 4.15056L10.1568 4.2486C10.0267 4.15412 9.88497 4.07658 9.73435 4.01954L9.73167 3.82881C9.72989 3.67462 9.61225 3.54628 9.45895 3.53202L9.15414 3.50172C9.08001 3.4941 9.00567 3.51407 8.94533 3.5578C8.88499 3.60154 8.84288 3.66597 8.82705 3.7388L8.78694 3.92596C8.62378 3.95339 8.46495 4.00224 8.31457 4.07124L8.17465 3.93576C8.06413 3.82881 7.89123 3.8199 7.77358 3.91794L7.53472 4.11402C7.47702 4.16124 7.43876 4.22807 7.42725 4.30174C7.41574 4.3754 7.43179 4.45073 7.47233 4.5133L7.58642 4.69155C7.49996 4.81633 7.42866 4.95447 7.37697 5.09886L7.16307 5.10153V5.10242ZM9.16483 4.92952C9.37501 4.95159 9.56799 5.05571 9.70183 5.21925C9.83567 5.3828 9.89956 5.59256 9.87962 5.80295C9.83684 6.24145 9.44469 6.56052 9.00619 6.51863C8.56769 6.47407 8.24862 6.0837 8.2914 5.6452C8.31325 5.43486 8.41728 5.24166 8.58085 5.10763C8.74442 4.9736 8.95431 4.90959 9.16483 4.92952Z" fill="black" fill-opacity="0.5"/>
</g>
<defs>
<clipPath id="clip0">
<rect width="18.7164" height="18.7164" rx="9.35821" fill="white"/>
</clipPath>
</defs>
</svg>
